<svg xmlns="http://www.w3.org/2000/svg" xmlns:xlink="http://www.w3.org/1999/xlink"><defs><symbol fill="none" viewBox="0 0 15 15" id="arrow_left"><path d="M13.08 14.327a.996.996 0 001.411 0c.39-.392.39-1.026 0-1.417l-1.412 1.417zM1.437.224A1 1 0 00.44 1.226v9.016a1 1 0 00.998 1.002 1 1 0 00.998-1.002V2.227h7.985a1 1 0 00.999-1.001A1 1 0 0010.42.224H1.438zM14.49 12.91L2.144.517.732 1.934 13.08 14.327l1.412-1.417z" fill="#fff" /></symbol><symbol fill="none" viewBox="0 0 15 15" id="arrow_right"><path d="M1.76 14.327a.996.996 0 01-1.411 0 1.004 1.004 0 010-1.417l1.411 1.417zM13.402.224a1 1 0 01.998 1.002v9.016a1 1 0 01-.998 1.002 1 1 0 01-.998-1.002V2.227H4.418a1 1 0 01-.998-1.001A1 1 0 014.418.224h8.984zM.349 12.91L12.696.517l1.412 1.417L1.76 14.327.35 12.91z" fill="#fff" /></symbol><symbol fill="none" viewBox="0 0 33 24" id="exit"><path d="M31 13.5a1.5 1.5 0 000-3v3zM.94 10.94a1.5 1.5 0 000 2.12l9.545 9.547a1.5 1.5 0 102.122-2.122L4.12 12l8.486-8.485a1.5 1.5 0 10-2.122-2.122L.94 10.94zM31 10.5H2v3h29v-3z" fill="#fff" /></symbol><symbol fill="none" viewBox="0 0 32 57" id="microphone"><path d="M30.381 27.452a.98.98 0 00-.98.98v5.883c0 7.57-6.155 13.726-13.72 13.726-7.566 0-13.72-6.157-13.72-13.726v-5.882a.98.98 0 10-1.961 0v5.882c0 8.32 6.511 15.127 14.7 15.637v4.952H9.8a.98.98 0 100 1.961h11.76a.98.98 0 100-1.96h-4.9v-4.953c8.19-.51 14.701-7.319 14.701-15.637v-5.882a.98.98 0 00-.98-.98z" fill="#94E264" /><path d="M15.68 45.1c5.945 0 10.781-4.839 10.781-10.785v-23.53C26.461 4.838 21.625 0 15.681 0 9.737 0 4.9 4.838 4.9 10.785v23.53C4.9 40.261 9.736 45.1 15.68 45.1z" fill="#94E264" /></symbol><symbol fill="none" viewBox="0 0 52 57" id="microphone_off"><g opacity=".5"><path d="M40.381 27.452a.98.98 0 00-.98.98v5.883c0 7.57-6.155 13.726-13.72 13.726-7.566 0-13.72-6.157-13.72-13.726v-5.882a.98.98 0 10-1.961 0v5.882c0 8.32 6.511 15.127 14.7 15.637v4.952h-4.9a.98.98 0 100 1.961h11.76a.98.98 0 100-1.96h-4.9v-4.953c8.19-.51 14.701-7.319 14.701-15.637v-5.882a.98.98 0 00-.98-.98z" fill="#fff" /><path d="M25.68 45.1c5.945 0 10.781-4.839 10.781-10.785v-23.53C36.461 4.838 31.625 0 25.681 0 19.737 0 14.9 4.838 14.9 10.785v23.53c0 5.946 4.836 10.785 10.78 10.785z" fill="#fff" /><path stroke="#fff" stroke-width="3" d="M1.124 46.146l49.999-36" /></g></symbol><symbol fill="none" viewBox="0 0 10 16" id="next"><path d="M9.07 9.003a1 1 0 000-1.415L2.704 1.224A1 1 0 001.291 2.64l5.657 5.657-5.657 5.656a1 1 0 101.414 1.415L9.07 9.003zm-1.553.293h.845v-2h-.845v2z" fill="#fff" /></symbol><symbol fill="none" viewBox="0 0 15 21" id="next_2"><path d="M1 1l12.209 9.25L1 19.5" stroke="#4D4D4D" stroke-width="2" stroke-linecap="round" /></symbol><symbol fill="none" viewBox="0 0 10 10" id="oval"><path fill-rule="evenodd" clip-rule="evenodd" d="M5 10A5 5 0 105 0a5 5 0 000 10z" fill="#00A523" /></symbol><symbol fill="none" viewBox="0 0 32 32" id="phone"><path d="M30.98 25.692a2.302 2.302 0 00-1.142-1.705l-7.401-4.261a2.322 2.322 0 00-2.796.37l-1.458 1.457a1.068 1.068 0 01-1.427.08 42.113 42.113 0 01-3.364-3.025 42.151 42.151 0 01-3.025-3.363 1.068 1.068 0 01.08-1.427l1.458-1.458c.74-.74.892-1.89.37-2.797l-4.262-7.4A2.302 2.302 0 006.308 1.02a2.301 2.301 0 00-1.943.659L2.168 3.876C.635 5.41.61 8.214 2.098 11.773c1.432 3.422 4.103 7.19 7.521 10.608 3.418 3.419 7.186 6.09 10.608 7.52 1.752.733 3.321 1.1 4.646 1.1 1.366 0 2.473-.39 3.251-1.169l2.197-2.196a2.302 2.302 0 00.659-1.944z" fill="#fff" /><path d="M29.838 23.987l-.125.217.125-.217zm-7.401-4.261l-.125.216.125-.216zm-2.796.37l-.177-.177.177.176zm-1.458 1.457l-.177-.177.177.177zm-1.427.08l.156-.195-.156.195zm-3.364-3.025l.177-.177-.177.177zm-3.025-3.363l.195-.157-.195.157zm.08-1.427l.177.176-.177-.176zm1.458-1.458l-.177-.177.177.177zm.37-2.797l-.217.125.217-.125zm-4.262-7.4l.217-.125-.217.124zM6.308 1.02l-.033.247.033-.247zm-1.943.659l-.177-.177.177.177zM2.168 3.876L1.991 3.7l.177.176zm-.07 7.897l-.23.097.23-.097zM9.62 22.381l-.177.177.177-.177zm10.608 7.52l-.096.231.096-.23zm4.646 1.1v-.25.25zm3.251-1.169l.177.177-.177-.177zm2.197-2.196l.176.177-.176-.177zm.907-1.977a2.552 2.552 0 00-1.265-1.889l-.25.434c.563.324.934.877 1.019 1.521l.496-.066zm-1.265-1.889l-7.401-4.261-.25.433 7.401 4.262.25-.434zm-7.401-4.261a2.573 2.573 0 00-3.098.41l.353.353a2.073 2.073 0 012.495-.33l.25-.433zm-3.098.41l-1.458 1.457.354.354 1.457-1.458-.353-.353zm-1.458 1.457a.818.818 0 01-1.094.062l-.313.39c.526.423 1.283.38 1.76-.098l-.353-.354zm-1.094.062a41.896 41.896 0 01-3.343-3.007l-.354.354a42.402 42.402 0 003.384 3.043l.313-.39zm-3.343-3.007a41.917 41.917 0 01-3.007-3.343l-.39.314a42.386 42.386 0 003.043 3.383l.354-.354zm-3.007-3.343a.818.818 0 01.062-1.094l-.354-.353a1.318 1.318 0 00-.097 1.76l.39-.313zm.062-1.094l1.458-1.457-.354-.354-1.458 1.458.354.353zm1.458-1.457c.82-.82.988-2.094.41-3.098l-.434.25c.466.808.33 1.834-.33 2.494l.354.354zm.41-3.098L8.23 2.037l-.433.25 4.261 7.401.433-.25zM8.23 2.037A2.552 2.552 0 006.34.773l-.065.495a2.052 2.052 0 011.522 1.019l.433-.25zM6.341.773a2.551 2.551 0 00-2.153.73l.353.353c.46-.459 1.09-.673 1.734-.588l.066-.495zm-2.153.73L1.99 3.7l.354.353L4.54 1.856l-.353-.353zM1.99 3.7C.341 5.35.373 8.295 1.868 11.87l.461-.193C.847 8.133.93 5.469 2.345 4.053L1.99 3.7zm-.123 8.17c1.447 3.46 4.14 7.253 7.574 10.688l.354-.354c-3.402-3.402-6.051-7.143-7.467-10.527l-.461.193zm7.574 10.688c3.435 3.435 7.229 6.128 10.689 7.574l.193-.46c-3.385-1.416-7.126-4.065-10.528-7.468l-.354.354zm10.689 7.574c1.771.741 3.374 1.118 4.742 1.118v-.5c-1.281 0-2.817-.354-4.55-1.079l-.192.461zm4.742 1.118c1.414 0 2.59-.404 3.428-1.24l-.354-.354c-.72.72-1.755 1.094-3.074 1.094v.5zm3.428-1.24l2.197-2.198-.354-.353-2.197 2.197.354.353zm2.197-2.198c.569-.569.835-1.355.73-2.153l-.496.066a2.052 2.052 0 01-.588 1.734l.354.353z" fill="#fff" /></symbol><symbol fill="none" viewBox="0 0 63 24" id="phone_off"><path d="M60.447 22.703c-.986.76-2.22 1.009-3.382.68l-13.658-3.864c-1.673-.473-2.804-2.065-2.751-3.87l.105-3.56c.027-.946-.633-1.739-1.538-1.842a67.783 67.783 0 00-7.53-.43 68.41 68.41 0 00-7.555.395c-.91.1-1.618.889-1.645 1.836l-.105 3.558c-.053 1.806-1.278 3.392-2.979 3.858l-13.883 3.8a3.69 3.69 0 01-3.341-.695c-.942-.766-1.46-1.925-1.423-3.18l.157-5.362c.11-3.742 3.494-7.187 9.529-9.701C16.25 1.909 23.89.588 31.964.606c8.072.019 15.635 1.375 21.294 3.818 2.897 1.25 5.139 2.724 6.655 4.345 1.565 1.67 2.357 3.499 2.302 5.399l-.158 5.362a4.145 4.145 0 01-1.61 3.172z" fill="#fff" /><path d="M57.065 23.383l.065-.246-.065.246zm-13.658-3.864l.065-.245-.065.245zm-2.751-3.87l-.246-.008.246.007zm.105-3.56l-.246-.007.245.008zm-1.538-1.842l-.027.252.028-.252zm-7.53-.43v.254h-.001v-.254zm-7.555.395l.025.253-.025-.253zm-1.645 1.836l.245.007-.245-.007zm-.105 3.558l-.246-.007.246.007zm-2.979 3.858l-.062-.246.062.246zm-13.883 3.8l.063.246-.063-.246zm-3.341-.695l.152-.2-.152.2zm-1.423-3.18l-.246-.008.246.008zm.157-5.362l-.245-.007.245.007zm9.529-9.701l-.092-.236.092.236zM31.964.606V.352v.254zm21.294 3.818l.095-.234-.095.234zm6.655 4.345l-.176.176.176-.176zm2.302 5.399l.245.007-.245-.007zm-.158 5.362l.245.007-.245-.007zm-1.463 3.376c-1.046.807-2.357 1.072-3.594.722l.13-.49c1.088.307 2.243.076 3.17-.64l.294.408zM57 23.628l-13.658-3.864.13-.49 13.658 3.863-.13.49zm-13.658-3.864c-1.783-.504-2.988-2.201-2.932-4.123l.492.015c-.05 1.69 1.008 3.176 2.57 3.618l-.13.49zm-2.932-4.123l.105-3.559.491.015-.105 3.559-.49-.015zm.105-3.559c.024-.816-.544-1.494-1.319-1.583l.055-.505c1.033.118 1.787 1.025 1.755 2.103l-.491-.015zM39.196 10.5a67.527 67.527 0 00-7.504-.428l.002-.509c2.564.006 5.107.152 7.557.432l-.055.505zm-7.504-.428a68.162 68.162 0 00-7.529.394l-.05-.506a68.651 68.651 0 017.58-.397l-.001.509zm-7.529.394c-.787.086-1.4.77-1.425 1.59l-.491-.014c.032-1.075.833-1.969 1.865-2.082l.052.506zm-1.425 1.59l-.104 3.559-.492-.015.105-3.559.491.015zm-.104 3.559c-.057 1.919-1.357 3.601-3.162 4.095l-.125-.49c1.596-.438 2.745-1.928 2.795-3.62l.492.015zm-3.162 4.095L5.589 23.51l-.126-.491 13.884-3.8.125.49zM5.589 23.51a3.929 3.929 0 01-3.556-.741l.304-.4a3.45 3.45 0 003.126.65l.126.491zm-3.556-.741C1.029 21.953.477 20.716.516 19.38l.491.015c-.034 1.176.45 2.258 1.33 2.973l-.304.4zM.516 19.38l.158-5.361.491.014-.158 5.362-.491-.015zm.158-5.361c.115-3.907 3.633-7.41 9.682-9.93l.183.472c-6.02 2.507-9.269 5.895-9.374 9.473l-.491-.015zm9.682-9.93C16.195 1.658 23.87.334 31.965.352l-.002.509c-8.05-.019-15.658 1.299-21.424 3.7l-.183-.47zM31.965.352C40.06.371 47.656 1.73 53.353 4.19l-.19.469C47.542 2.232 40.013.879 31.963.86l.002-.509zM53.353 4.19c2.916 1.259 5.19 2.749 6.737 4.402l-.353.353C58.25 7.358 56.04 5.901 53.163 4.66l.19-.47zm6.737 4.402c1.598 1.707 2.428 3.598 2.37 5.583l-.491-.015c.053-1.815-.702-3.58-2.232-5.215l.353-.353zm2.37 5.583l-.158 5.362-.49-.015.157-5.362.491.015zm-.158 5.362a4.402 4.402 0 01-1.708 3.37l-.294-.408a3.888 3.888 0 001.511-2.977l.491.015z" fill="#fff" /></symbol><symbol fill="none" viewBox="0 0 33 32" id="power"><g opacity=".3" fill="#fff" stroke="#fff"><path d="M20.716 3.318c-.309-.084-.63.081-.72.37-.09.288.087.59.395.674 5.89 1.614 10.003 6.764 10.003 12.524 0 7.194-6.244 13.047-13.917 13.047S2.56 24.08 2.56 16.886c0-5.767 4.12-10.919 10.02-12.53.307-.083.484-.385.395-.673-.09-.288-.411-.456-.719-.37C5.864 5.057 1.4 10.638 1.4 16.886c0 7.794 6.763 14.134 15.077 14.134s15.077-6.34 15.077-14.134c0-6.24-4.457-11.819-10.838-13.568z" /><path d="M16.477 15.255c.32 0 .58-.243.58-.544V1.121c0-.3-.26-.544-.58-.544-.32 0-.58.243-.58.544v13.59c0 .301.26.544.58.544z" /></g></symbol><symbol fill="none" viewBox="0 0 9 16" id="prev"><path d="M.929 9.003a1 1 0 010-1.415l6.364-6.364A1 1 0 018.707 2.64L3.05 8.296l5.657 5.656a1 1 0 11-1.414 1.415L.929 9.003zm1.552.293h-.845v-2h.845v2z" fill="#fff" /></symbol><symbol fill="none" viewBox="0 0 16 21" id="prev_2"><path d="M14.209 19.5L2 10.25 14.209 1" stroke="#4D4D4D" stroke-width="2" stroke-linecap="round" /></symbol><symbol fill="none" viewBox="0 0 17 30" id="question"><g opacity=".3" fill="#fff"><path fill-rule="evenodd" clip-rule="evenodd" d="M8.059 17.913c-.445.917-.68 2.093-.708 3.53H8.46c0-2.5.902-4.41 2.707-5.732 1.778-1.512 2.975-2.842 3.59-3.99.616-1.147.923-2.458.923-3.933 0-2.153-.636-3.865-1.907-5.134C12.5 1.384 10.79.75 8.643.75c-2.147 0-3.924.635-5.333 1.904-1.408 1.27-2.126 2.942-2.154 5.02h1.108c.027-1.732.605-3.148 1.733-4.25C5.125 2.32 6.674 1.768 8.643 1.768c1.847 0 3.296.532 4.35 1.596 1.052 1.064 1.579 2.526 1.579 4.385 0 .987-.113 1.833-.339 2.539a6.864 6.864 0 01-1.077 2.038c-.492.654-1.354 1.52-2.584 2.596C9.34 16 8.503 16.997 8.059 17.913zm-.872 9.52a1.02 1.02 0 00-.328.76c0 .294.11.544.328.75.219.204.485.307.8.307.315 0 .585-.103.81-.308a.976.976 0 00.339-.75c0-.294-.113-.548-.339-.76a1.143 1.143 0 00-.81-.317c-.315 0-.581.106-.8.318z" /><path d="M7.351 21.442l-.5-.01-.01.51h.51v-.5zm.708-3.529l.45.219-.45-.219zm.4 3.53v.5h.5v-.5h-.5zm2.707-5.732l.296.404.015-.01.014-.013-.325-.38zm2.606-13.057l-.354.354.354-.354zm-10.462 0l-.335-.372.335.372zm-2.154 5.02l-.5-.008-.006.507h.506v-.5zm1.108 0v.5h.492l.008-.493-.5-.008zm1.733-4.25l.35.357-.35-.358zm10.236 6.865l.476.152-.476-.152zm-1.077 2.038l.4.3-.4-.3zM7.187 27.433l.348.36-.348-.36zm0 1.51l.342-.366-.342.365zm.664-7.491c.027-1.391.255-2.49.658-3.32l-.9-.437c-.486 1.003-.73 2.257-.758 3.738l1 .019zm.608-.51H7.35v1H8.46v-1zm2.412-5.634c-1.95 1.427-2.912 3.497-2.912 6.134h1c0-2.362.843-4.113 2.503-5.327l-.59-.807zm3.445-3.823c-.572 1.065-1.712 2.347-3.474 3.846l.649.761c1.793-1.526 3.046-2.905 3.706-4.134l-.881-.473zm.863-3.697c0 1.403-.292 2.631-.863 3.697l.88.473c.66-1.23.983-2.624.983-4.17h-1zm-1.76-4.78c1.159 1.157 1.76 2.731 1.76 4.78h1c0-2.258-.67-4.107-2.054-5.488l-.707.708zM8.643 1.25c2.043 0 3.615.6 4.775 1.758l.707-.708C12.74.92 10.895.25 8.643.25v1zM3.645 3.025C4.949 1.85 6.603 1.25 8.643 1.25v-1C6.39.25 4.488.92 2.975 2.282l.67.743zM1.656 7.68c.026-1.953.694-3.488 1.989-4.655l-.67-.743C1.453 3.654.685 5.465.656 7.667l1 .013zm.608-.507H1.156v1h1.108v-1zm1.384-4.108c-1.232 1.205-1.855 2.752-1.884 4.6l1 .016c.025-1.613.558-2.9 1.583-3.9l-.7-.716zM8.643 1.27c-2.065 0-3.752.581-4.995 1.796l.699.716C5.36 2.79 6.77 2.269 8.643 2.269v-1zm4.705 1.745c-1.168-1.18-2.758-1.745-4.705-1.745v1c1.746 0 3.056.5 3.994 1.448l.71-.703zm1.724 4.736c0-1.957-.557-3.557-1.724-4.736l-.711.703c.939.95 1.435 2.272 1.435 4.033h1zm-.363 2.69c.246-.767.363-1.667.363-2.69h-1c0 .952-.11 1.744-.315 2.386l.952.305zm-1.153 2.188a7.365 7.365 0 001.153-2.187l-.952-.305a6.366 6.366 0 01-1 1.89l.799.602zM10.9 15.299c1.236-1.082 2.13-1.974 2.655-2.671l-.8-.602c-.46.611-1.288 1.449-2.514 2.52l.659.753zm-2.392 2.833c.403-.831 1.185-1.776 2.392-2.833l-.659-.752c-1.254 1.097-2.147 2.146-2.633 3.148l.9.437zm-1.15 10.06c0-.154.05-.28.176-.4l-.696-.719c-.312.303-.48.684-.48 1.12h1zm.17.386a.49.49 0 01-.17-.386h-1c0 .436.168.817.486 1.115l.684-.73zm.458.172a.628.628 0 01-.458-.172l-.684.73c.316.296.707.442 1.142.442v-1zm.474-.178a.664.664 0 01-.474.178v1c.435 0 .826-.146 1.147-.438l-.673-.74zm.175-.38c0 .149-.05.266-.175.38l.673.74c.325-.296.502-.679.502-1.12h-1zm-.18-.395c.13.123.18.246.18.395h1c0-.44-.176-.823-.497-1.124l-.684.73zm-.469-.182c.19 0 .337.06.468.183l.684-.73c-.32-.3-.713-.453-1.152-.453v1zm-.452.177a.61.61 0 01.452-.177v-1c-.44 0-.832.153-1.148.458l.696.72z" /></g></symbol><symbol fill="none" viewBox="0 0 35 35" id="record_off"><circle cx="17.5" cy="17.5" r="16.5" stroke="#B3B2BC" stroke-width="2" /><circle cx="17.5" cy="17.5" r="8.5" fill="#B3B2BC" /></symbol><symbol fill="none" viewBox="0 0 35 35" id="record_on"><circle cx="17.5" cy="17.5" r="16.5" stroke="#DB2C2C" stroke-width="2" /><path opacity=".4" d="M44.08 17.718c0-1.2.09-2.214.27-3.042.192-.828.474-1.494.846-1.998s.84-.864 1.404-1.08c.564-.228 1.23-.342 1.998-.342.732 0 1.356.126 1.872.378.528.24.954.624 1.278 1.152.336.516.582 1.182.738 1.998.156.816.234 1.794.234 2.934 0 1.26-.096 2.304-.288 3.132-.18.828-.456 1.494-.828 1.998-.36.492-.81.84-1.35 1.044-.54.192-1.158.288-1.854.288-1.5 0-2.598-.528-3.294-1.584-.684-1.056-1.026-2.682-1.026-4.878zm1.584 0c0 .96.054 1.764.162 2.412.12.648.294 1.17.522 1.566.24.396.534.684.882.864.348.168.762.252 1.242.252s.888-.072 1.224-.216c.336-.156.612-.42.828-.792.216-.384.372-.9.468-1.548.096-.648.144-1.476.144-2.484 0-1.044-.048-1.896-.144-2.556-.096-.672-.252-1.2-.468-1.584-.216-.384-.498-.648-.846-.792-.348-.144-.774-.216-1.278-.216-.516 0-.948.084-1.296.252-.348.156-.63.426-.846.81-.216.384-.372.906-.468 1.566-.084.66-.126 1.482-.126 2.466zm9.209 0c0-1.2.09-2.214.27-3.042.192-.828.474-1.494.846-1.998s.84-.864 1.404-1.08c.564-.228 1.23-.342 1.998-.342.732 0 1.356.126 1.872.378.528.24.954.624 1.278 1.152.336.516.582 1.182.738 1.998.156.816.234 1.794.234 2.934 0 1.26-.096 2.304-.288 3.132-.18.828-.456 1.494-.828 1.998-.36.492-.81.84-1.35 1.044-.54.192-1.158.288-1.854.288-1.5 0-2.598-.528-3.294-1.584-.684-1.056-1.026-2.682-1.026-4.878zm1.584 0c0 .96.054 1.764.162 2.412.12.648.294 1.17.522 1.566.24.396.534.684.882.864.348.168.762.252 1.242.252s.888-.072 1.224-.216c.336-.156.612-.42.828-.792.216-.384.372-.9.468-1.548.096-.648.144-1.476.144-2.484 0-1.044-.048-1.896-.144-2.556-.096-.672-.252-1.2-.468-1.584-.216-.384-.498-.648-.846-.792-.348-.144-.774-.216-1.278-.216-.516 0-.948.084-1.296.252-.348.156-.63.426-.846.81-.216.384-.372.906-.468 1.566-.084.66-.126 1.482-.126 2.466zm10.109 5.31c0-.324.078-.6.234-.828.168-.228.48-.342.936-.342.456 0 .768.114.936.342.168.228.252.504.252.828 0 .312-.084.582-.252.81-.168.228-.48.342-.936.342-.456 0-.768-.114-.936-.342a1.4 1.4 0 01-.234-.81zm0-6.696c0-.324.078-.6.234-.828.168-.228.48-.342.936-.342.456 0 .768.114.936.342.168.228.252.504.252.828 0 .312-.084.582-.252.81-.168.228-.48.342-.936.342-.456 0-.768-.114-.936-.342a1.4 1.4 0 01-.234-.81zm5.41 1.386c0-1.2.09-2.214.27-3.042.193-.828.475-1.494.847-1.998.371-.504.84-.864 1.403-1.08.565-.228 1.23-.342 1.999-.342.731 0 1.355.126 1.871.378.528.24.954.624 1.278 1.152.337.516.582 1.182.738 1.998.156.816.234 1.794.234 2.934 0 1.26-.096 2.304-.287 3.132-.18.828-.456 1.494-.828 1.998-.36.492-.81.84-1.35 1.044-.54.192-1.158.288-1.855.288-1.5 0-2.598-.528-3.294-1.584-.683-1.056-1.025-2.682-1.025-4.878zm1.585 0c0 .96.053 1.764.161 2.412.12.648.294 1.17.523 1.566.24.396.533.684.881.864.349.168.762.252 1.242.252s.889-.072 1.225-.216c.335-.156.611-.42.828-.792.215-.384.371-.9.467-1.548.096-.648.144-1.476.144-2.484 0-1.044-.047-1.896-.144-2.556-.096-.672-.252-1.2-.468-1.584-.216-.384-.498-.648-.846-.792-.347-.144-.773-.216-1.278-.216-.516 0-.948.084-1.296.252-.347.156-.63.426-.846.81-.215.384-.371.906-.468 1.566-.084.66-.126 1.482-.126 2.466zm9.208 0c0-1.2.09-2.214.27-3.042.192-.828.474-1.494.846-1.998s.84-.864 1.404-1.08c.564-.228 1.23-.342 1.998-.342.732 0 1.356.126 1.872.378.528.24.954.624 1.278 1.152.337.516.582 1.182.739 1.998.156.816.233 1.794.233 2.934 0 1.26-.096 2.304-.288 3.132-.18.828-.456 1.494-.828 1.998-.36.492-.81.84-1.35 1.044-.54.192-1.157.288-1.853.288-1.5 0-2.599-.528-3.294-1.584-.684-1.056-1.027-2.682-1.027-4.878zm1.584 0c0 .96.055 1.764.163 2.412.12.648.293 1.17.521 1.566.24.396.534.684.882.864.349.168.763.252 1.243.252.48 0 .887-.072 1.223-.216.337-.156.612-.42.828-.792.217-.384.373-.9.469-1.548.096-.648.144-1.476.144-2.484 0-1.044-.048-1.896-.144-2.556-.097-.672-.252-1.2-.469-1.584-.215-.384-.497-.648-.845-.792-.349-.144-.774-.216-1.278-.216-.517 0-.949.084-1.297.252-.348.156-.63.426-.846.81-.216.384-.371.906-.468 1.566-.084.66-.126 1.482-.126 2.466z" fill="#fff" /><path fill="#DB2C2C" d="M10 10h15v15H10z" /></symbol><symbol fill="none" viewBox="0 0 44 30" id="reset"><path fill-rule="evenodd" clip-rule="evenodd" d="M11.562 2.562A4 4 0 0114.733 1H39a4 4 0 014 4v20a4 4 0 01-4 4H14.733a4 4 0 01-3.17-1.562L2 15l9.562-12.438z" fill="#000" fill-opacity=".5" stroke="#fff" stroke-opacity=".1" stroke-width="2" /><path d="M22.048 10.2l8.786 8.667M30.834 10.2l-8.786 8.667" stroke="#fff" stroke-width="2" stroke-linecap="round" /></symbol><symbol fill="none" viewBox="0 0 33 22" id="return"><path d="M24.093 6.82c4.268 0 7.74 3.256 7.74 7.257 0 4.001-3.472 7.257-7.74 7.257h-3.791c-.39 0-.707-.297-.707-.663 0-.367.316-.663.707-.663h3.791c3.488 0 6.326-2.66 6.326-5.93 0-3.27-2.838-5.93-6.326-5.93H2.425L7.07 13.03a.635.635 0 01-.057.936.732.732 0 01-.47.168.727.727 0 01-.529-.222L.931 8.57a1.556 1.556 0 010-2.172l5.084-5.343a.74.74 0 011-.053.635.635 0 01.056.936L2.425 6.821h21.668z" fill="#B3B2BC" stroke="#B3B2BC" stroke-width=".8" /></symbol><symbol fill="none" viewBox="0 0 30 31" id="set"><path d="M3.535 5.366a2.267 2.267 0 002.264-2.27A2.267 2.267 0 003.535.826a2.267 2.267 0 00-2.264 2.27 2.267 2.267 0 002.264 2.27zM3.535 17.759a2.267 2.267 0 002.264-2.27 2.267 2.267 0 00-2.264-2.27 2.267 2.267 0 00-2.264 2.27 2.267 2.267 0 002.264 2.27zM3.535 30.151a2.267 2.267 0 002.264-2.27 2.267 2.267 0 00-2.264-2.27 2.267 2.267 0 00-2.264 2.27 2.267 2.267 0 002.264 2.27zM15 5.366a2.267 2.267 0 002.264-2.27A2.267 2.267 0 0015 .826a2.267 2.267 0 00-2.264 2.27A2.267 2.267 0 0015 5.366zM15 17.759a2.267 2.267 0 002.264-2.27A2.267 2.267 0 0015 13.219a2.267 2.267 0 00-2.264 2.27A2.267 2.267 0 0015 17.759zM15 30.151a2.267 2.267 0 002.264-2.27A2.267 2.267 0 0015 25.611a2.267 2.267 0 00-2.264 2.27A2.267 2.267 0 0015 30.151zM26.465 5.366a2.267 2.267 0 002.264-2.27 2.267 2.267 0 00-2.264-2.27 2.267 2.267 0 00-2.264 2.27 2.267 2.267 0 002.264 2.27zM26.465 17.759a2.267 2.267 0 002.264-2.27 2.267 2.267 0 00-2.264-2.27 2.267 2.267 0 00-2.264 2.27 2.267 2.267 0 002.264 2.27zM26.465 30.151a2.267 2.267 0 002.264-2.27 2.267 2.267 0 00-2.264-2.27 2.267 2.267 0 00-2.264 2.27 2.267 2.267 0 002.264 2.27z" fill="#fff" stroke="#fff" /></symbol><symbol fill="none" viewBox="0 0 15 16" id="set3"><path fill-rule="evenodd" clip-rule="evenodd" d="M1.5 3a1.5 1.5 0 100-3 1.5 1.5 0 000 3zM1.5 9.125a1.5 1.5 0 100-3 1.5 1.5 0 000 3zM1.5 15.25a1.5 1.5 0 100-3 1.5 1.5 0 000 3zM7.5 3a1.5 1.5 0 100-3 1.5 1.5 0 000 3zM7.5 9.125a1.5 1.5 0 100-3 1.5 1.5 0 000 3zM7.5 15.25a1.5 1.5 0 100-3 1.5 1.5 0 000 3zM13.5 3a1.5 1.5 0 100-3 1.5 1.5 0 000 3zM13.5 9.125a1.5 1.5 0 100-3 1.5 1.5 0 000 3zM13.5 15.25a1.5 1.5 0 100-3 1.5 1.5 0 000 3z" fill="#4D4D4D" /></symbol><symbol fill="none" viewBox="0 0 22 30" id="set_2"><path d="M11 24.333A2.674 2.674 0 008.333 27c0 1.467 1.2 2.667 2.667 2.667 1.467 0 2.667-1.2 2.667-2.667 0-1.467-1.2-2.667-2.667-2.667zm-8-24A2.675 2.675 0 00.333 3c0 1.467 1.2 2.667 2.667 2.667 1.467 0 2.667-1.2 2.667-2.667C5.667 1.533 4.467.333 3 .333zm0 8A2.675 2.675 0 00.333 11c0 1.467 1.2 2.667 2.667 2.667 1.467 0 2.667-1.2 2.667-2.667 0-1.467-1.2-2.667-2.667-2.667zm0 8A2.674 2.674 0 00.333 19c0 1.467 1.2 2.667 2.667 2.667 1.467 0 2.667-1.2 2.667-2.667 0-1.467-1.2-2.667-2.667-2.667zM19 5.667c1.467 0 2.667-1.2 2.667-2.667 0-1.467-1.2-2.667-2.667-2.667A2.675 2.675 0 0016.333 3c0 1.467 1.2 2.667 2.667 2.667zm-8 10.666A2.674 2.674 0 008.333 19c0 1.467 1.2 2.667 2.667 2.667 1.467 0 2.667-1.2 2.667-2.667 0-1.467-1.2-2.667-2.667-2.667zm8 0A2.674 2.674 0 0016.333 19c0 1.467 1.2 2.667 2.667 2.667 1.467 0 2.667-1.2 2.667-2.667 0-1.467-1.2-2.667-2.667-2.667zm0-8A2.675 2.675 0 0016.333 11c0 1.467 1.2 2.667 2.667 2.667 1.467 0 2.667-1.2 2.667-2.667 0-1.467-1.2-2.667-2.667-2.667zm-8 0A2.675 2.675 0 008.333 11c0 1.467 1.2 2.667 2.667 2.667 1.467 0 2.667-1.2 2.667-2.667 0-1.467-1.2-2.667-2.667-2.667zm0-8A2.675 2.675 0 008.333 3c0 1.467 1.2 2.667 2.667 2.667 1.467 0 2.667-1.2 2.667-2.667 0-1.467-1.2-2.667-2.667-2.667z" fill="#fff" /></symbol><symbol fill="none" viewBox="0 0 33 30" id="sound_max"><path fill-rule="evenodd" clip-rule="evenodd" d="M15.943 1.16a1.824 1.824 0 011.859-.026c.6.34.96.958.96 1.655v23.837c0 .697-.36 1.316-.96 1.655-.286.16-.596.24-.907.241a1.84 1.84 0 01-.952-.268.594.594 0 01-.097-.072l-8.147-7.471-6.383.003a.603.603 0 01-.601-.601V8.701a.6.6 0 01.601-.6h6.397l8.152-6.885c.024-.02.05-.04.078-.056zm1.267 26.076a.689.689 0 00.349-.61V2.789a.688.688 0 00-.349-.609.63.63 0 00-.61-.01L8.534 8.98v2.724a.6.6 0 11-1.203 0V9.302H1.918v10.21l5.414-.002v-2.4a.6.6 0 111.203 0v2.736l8.074 7.405a.632.632 0 00.601-.015z" fill="#fff" /><path d="M17.802 1.134l-.197.348.197-.348zm-1.86.026l.203.345.004-.002-.206-.343zm1.86 27.12l.196.35-.196-.35zm-.907.242v.4-.4zm-.952-.268l.206-.342-.002-.001-.204.343zm-.097-.072l.27-.294-.27.294zm-8.147-7.471l.27-.295-.114-.105h-.156v.4zm-6.383.003v.4-.4zm-.425-.176l-.282.284.282-.284zM7.713 8.1v.4h.147l.111-.095-.258-.305zm8.152-6.885l.258.306-.258-.306zm1.345 26.02l.196.349.001-.001-.197-.348zm0-25.056l.197-.348-.197.348zm-.61-.01l-.187-.355-.038.02-.034.029.258.305zM8.534 8.98l-.258-.305-.142.12v.185h.4zm-1.203.322h.4v-.4h-.4v.4zm-5.414 0v-.4h-.4v.4h.4zm0 10.21h-.4v.4h.4v-.4zm5.414-.002v.4h.4v-.4h-.4zm1.203.336h-.4v.176l.13.12.27-.296zm8.074 7.405l-.27.295.04.037.05.025.18-.357zM17.999.786a2.224 2.224 0 00-2.262.032l.412.685a1.425 1.425 0 011.456-.02l.393-.697zm1.163 2.003c0-.84-.436-1.592-1.164-2.003l-.393.696c.474.268.757.752.757 1.307h.8zm0 23.837V2.789h-.8v23.837h.8zm-1.164 2.003a2.274 2.274 0 001.164-2.003h-.8c0 .555-.283 1.04-.757 1.306l.393.697zm-1.103.293c.38 0 .758-.098 1.103-.293l-.393-.697c-.226.128-.469.19-.711.19l.001.8zm-1.159-.325a2.24 2.24 0 001.159.325v-.8a1.44 1.44 0 01-.746-.21l-.413.685zm-.16-.12c.05.046.105.087.162.12l.41-.686a.19.19 0 01-.031-.023l-.542.589zm-8.147-7.472l8.147 7.472.54-.59-8.147-7.471-.54.59zm-6.113.109L7.7 21.11v-.8l-6.383.003v.8zM.61 20.82c.187.186.44.293.707.293v-.8a.203.203 0 01-.143-.06l-.564.567zm-.294-.708c0 .266.105.52.294.709l.564-.568a.197.197 0 01-.058-.141h-.8zm0-11.412v11.412h.8V8.701h-.8zm1.001-1a1 1 0 00-1.001 1h.8c0-.11.089-.2.201-.2v-.8zm6.397 0H1.316v.8h6.397v-.8zM15.607.91L7.455 7.795l.516.611 8.152-6.884-.516-.611zm.134-.096a.954.954 0 00-.135.096l.518.61a.159.159 0 01.021-.016l-.404-.69zm1.418 25.811a.29.29 0 01-.145.261l.393.697c.348-.197.552-.56.552-.958h-.8zm0-23.837v23.837h.8V2.789h-.8zm-.145-.26c.087.049.145.14.145.26h.8c0-.397-.204-.76-.552-.957l-.393.696zm-.23-.005c.057-.03.102-.032.136-.027.04.005.075.02.094.032l.393-.697a1.03 1.03 0 00-.994-.017l.372.709zm-7.99 6.762l8.063-6.811-.516-.611-8.064 6.81.516.612zm.141 2.418V8.98h-.8v2.724h.8zm-1.001 1.001a1 1 0 001.001-1h-.8a.2.2 0 01-.201.2v.8zm-1.002-1a1 1 0 001.002 1v-.8a.2.2 0 01-.202-.2h-.8zm0-2.403v2.402h.8V9.302h-.8zm-5.014.4h5.414v-.8H1.918v.8zm.4 9.81V9.302h-.8v10.21h.8zm5.014-.402l-5.414.002v.8l5.414-.002v-.8zm-.4-2v2.4h.8v-2.4h-.8zm1.002-1a1 1 0 00-1.002 1h.8c0-.11.09-.2.202-.2v-.8zm1.001 1a1 1 0 00-1.001-1v.8a.2.2 0 01.201.2h.8zm0 2.736V17.11h-.8v2.736h.8zm7.944 7.11l-8.073-7.404-.541.59 8.073 7.404.541-.59zm.136-.07a.277.277 0 01-.093.032.214.214 0 01-.133-.024l-.36.714c.446.226.836.056.977-.023l-.391-.698z" fill="#fff" /><path d="M24.054 3.328a.602.602 0 10-.387 1.138 10.5 10.5 0 017.142 9.942c0 4.494-2.865 8.49-7.128 9.942a.6.6 0 10.389 1.137 11.706 11.706 0 007.942-11.079 11.7 11.7 0 00-7.958-11.08z" fill="#fff" stroke="#fff" stroke-width=".8" /><path d="M26.598 14.407c0-3.587-2.412-6.788-5.865-7.785a.602.602 0 00-.333 1.155c2.94.848 4.995 3.575 4.995 6.63 0 3.055-2.054 5.782-4.995 6.631a.6.6 0 10.333 1.154c3.454-.997 5.865-4.198 5.865-7.785z" fill="#fff" stroke="#fff" stroke-width=".8" /></symbol><symbol fill="none" viewBox="0 0 32 29" id="sound_min"><path fill-rule="evenodd" clip-rule="evenodd" d="M30.112 10.294c.39-.39 1.024-.39 1.415 0a.998.998 0 010 1.413l-2.956 2.951 3.102 3.098a.998.998 0 010 1.413c-.391.39-1.025.39-1.415 0l-3.103-3.098-3.102 3.098c-.39.39-1.024.39-1.415 0a.998.998 0 010-1.413l3.102-3.098-2.956-2.951a.998.998 0 010-1.413c.39-.39 1.024-.39 1.415 0l2.956 2.951 2.957-2.951zM16.27 1.16a1.825 1.825 0 011.859-.026c.601.339.96.958.96 1.655v23.837c0 .697-.359 1.316-.96 1.654a1.85 1.85 0 01-.907.242 1.84 1.84 0 01-.952-.268.591.591 0 01-.097-.072L8.026 20.71l-6.382.003a.603.603 0 01-.602-.6V8.7a.6.6 0 01.602-.6H8.04l8.15-6.885c.025-.02.052-.04.08-.056zm1.268 26.075a.69.69 0 00.348-.61V2.79a.689.689 0 00-.348-.61.63.63 0 00-.611-.01l-8.065 6.81v2.725a.6.6 0 11-1.203 0V9.302H2.245v10.21l5.414-.002v-2.4a.6.6 0 111.203 0v2.736l8.074 7.405a.632.632 0 00.602-.016z" fill="#fff" /><path d="M18.129 1.134l-.197.348.197-.348zm-1.859.026l.202.345.004-.002-.206-.343zm1.859 27.12l.196.349-.196-.349zm-.907.242v.4-.4zm-.952-.268l.207-.343h-.002l-.205.343zm-.097-.072l.27-.295-.27.295zM8.026 20.71l.27-.294-.114-.106h-.156v.4zm-6.382.003v.4-.4zm-.426-.176l-.282.284.282-.284zM8.041 8.101v.4h.146l.112-.095-.258-.305zm8.15-6.885l.259.305-.258-.305zm1.347 26.02l.195.348h.002l-.197-.349zm0-25.056l.197-.348h-.001l-.196.348zm-.611-.011l-.186-.354-.04.02-.033.028.259.306zm-8.065 6.81l-.258-.305-.142.12v.186h.4zm-1.203.323h.4v-.4h-.4v.4zm-5.414 0v-.4h-.4v.4h.4zm0 10.21h-.4v.4h.4v-.4zm5.414-.002v.4h.4v-.4h-.4zm1.203.336h-.4v.176l.13.119.27-.295zm8.074 7.405l-.27.295.04.037.05.025.18-.357zM18.326.785a2.224 2.224 0 00-2.262.032l.412.686a1.425 1.425 0 011.456-.021l.394-.697zm1.163 2.004c0-.84-.435-1.593-1.163-2.004l-.394.697c.474.267.757.752.757 1.307h.8zm0 23.837V2.789h-.8v23.837h.8zm-1.164 2.003a2.275 2.275 0 001.164-2.003h-.8c0 .554-.283 1.039-.756 1.306l.392.697zm-1.102.293c.38 0 .757-.099 1.102-.293l-.392-.697a1.45 1.45 0 01-.712.19l.002.8zm-1.16-.325a2.24 2.24 0 001.159.325v-.8a1.44 1.44 0 01-.745-.21l-.413.685zm-.16-.12c.05.046.105.087.162.12l.41-.687a.185.185 0 01-.031-.023l-.541.59zm-8.147-7.472l8.147 7.472.54-.59-8.146-7.471-.541.59zm-6.112.108l6.382-.003v-.8l-6.383.003v.8zm-.708-.292c.187.186.44.292.708.292v-.8a.203.203 0 01-.144-.06l-.564.568zm-.294-.708c0 .265.105.52.294.708l.564-.567a.197.197 0 01-.058-.141h-.8zm0-11.412v11.412h.8V8.7h-.8zm1.002-1a1 1 0 00-1.002 1h.8c0-.11.09-.2.202-.2v-.8zm6.397 0H1.644v.8H8.04v-.8zM15.934.91L7.783 7.794l.516.611 8.151-6.885-.516-.61zm.134-.096a.961.961 0 00-.135.096l.518.61a.159.159 0 01.021-.016l-.404-.69zm1.418 25.81a.29.29 0 01-.145.262l.393.697c.348-.197.552-.56.552-.958h-.8zm0-23.836v23.837h.8V2.789h-.8zm-.145-.261c.088.05.145.142.145.26h.8c0-.396-.204-.76-.552-.956l-.393.696zm-.229-.005c.057-.03.1-.031.136-.026.04.005.074.02.093.031l.393-.697a1.03 1.03 0 00-.993-.016l.371.708zM9.121 9.285l8.064-6.81-.517-.612-8.064 6.811.517.611zm.141 2.42V8.98h-.8v2.724h.8zm-1.001 1a1 1 0 001.001-1h-.8a.2.2 0 01-.201.2v.8zm-1.002-1a1 1 0 001.002 1v-.8a.2.2 0 01-.202-.2h-.8zm0-2.403v2.402h.8V9.302h-.8zm-5.014.4H7.66v-.8H2.245v.8zm.4 9.81V9.302h-.8v10.21h.8zm5.014-.402l-5.414.002v.8l5.414-.002v-.8zm-.4-2v2.4h.8v-2.4h-.8zm1.002-1a1 1 0 00-1.002 1h.8c0-.11.09-.2.202-.2v-.8zm1.001 1a1 1 0 00-1.001-1v.8a.2.2 0 01.201.2h.8zm0 2.736V17.11h-.8v2.736h.8zm7.944 7.11l-8.073-7.405-.541.59 8.074 7.405.54-.59zm.136-.07a.275.275 0 01-.093.032.215.215 0 01-.132-.024l-.361.714c.446.226.836.055.977-.024l-.39-.698z" fill="#fff" /></symbol><symbol fill="none" viewBox="0 0 16 21" id="tegs"><path d="M14.209 19.5L2 10.25 14.209 1" stroke="#4D4D4D" stroke-width="2" stroke-linecap="round" /></symbol><symbol fill="none" viewBox="0 0 15 21" id="tegs2"><path d="M1 1l12.209 9.25L1 19.5" stroke="#4D4D4D" stroke-width="2" stroke-linecap="round" /></symbol><symbol fill="none" viewBox="0 0 22 12" id="top_right_bottom_left"><path d="M1 .715l10 10 10-10" stroke="#fff" /></symbol><symbol fill="none" viewBox="0 0 35 35" id="view"><rect x="1" y="1" width="33" height="33" rx="3" stroke="#fff" stroke-width="2" /><path d="M22.667 11.833a4.833 4.833 0 11-9.667 0 4.833 4.833 0 019.667 0zM9.01 32c.116-5.389 1.172-8.839 2.734-10.946 1.483-2.002 3.508-2.905 5.951-3.037a3.601 3.601 0 00-.689 1.054c-.44 1.005-.506 2.22-.506 3.262V32H9.01z" fill="#fff" stroke="#fff" stroke-width="2" /><path d="M17 21a3 3 0 013-3h14v13a3 3 0 01-3 3H17V21z" stroke="#fff" stroke-width="2" /><circle cx="25.5" cy="24.5" r="1.5" fill="#fff" stroke="#fff" stroke-width="2" /><path d="M28.966 32H22.03c.113-1.863.545-2.794 1.009-3.274.518-.537 1.282-.726 2.462-.726 1.098 0 1.893.256 2.442.86.483.532.905 1.471 1.024 3.14z" fill="#fff" stroke="#fff" stroke-width="2" /></symbol></defs></svg>